<?xml version="1.0" encoding="UTF-8" standalone="no"?>
<!-- Created with Inkscape (http://www.inkscape.org/) -->

<svg
   version="1.1"
   id="svg840"
   xml:space="preserve"
   width="377.95334"
   height="122.66667"
   viewBox="0 0 377.95334 122.66667"
   sodipodi:docname="agility_logo_rev.svg"
   inkscape:version="1.1 (c4e8f9e, 2021-05-24)"
   xmlns:inkscape="http://www.inkscape.org/namespaces/inkscape"
   xmlns:sodipodi="http://sodipodi.sourceforge.net/DTD/sodipodi-0.dtd"
   xmlns="http://www.w3.org/2000/svg"
   xmlns:svg="http://www.w3.org/2000/svg"><defs
     id="defs844"><clipPath
       clipPathUnits="userSpaceOnUse"
       id="clipPath854"><path
         d="M 0,92 H 283.465 V 0 H 0 Z"
         id="path852" /></clipPath></defs><sodipodi:namedview
     id="namedview842"
     pagecolor="#ffffff"
     bordercolor="#666666"
     borderopacity="1.0"
     inkscape:pageshadow="2"
     inkscape:pageopacity="0.0"
     inkscape:pagecheckerboard="0"
     showgrid="false"
     inkscape:zoom="1.4234561"
     inkscape:cx="188.97667"
     inkscape:cy="61.470106"
     inkscape:window-width="1312"
     inkscape:window-height="997"
     inkscape:window-x="0"
     inkscape:window-y="25"
     inkscape:window-maximized="0"
     inkscape:current-layer="g846" /><g
     id="g846"
     inkscape:groupmode="layer"
     inkscape:label="AgilityEng Logo CMYK REV"
     transform="matrix(1.3333333,0,0,-1.3333333,0,122.66667)"><g
       id="g848"><g
         id="g850"
         clip-path="url(#clipPath854)"><g
           id="g856"
           transform="translate(41.7256,63.6733)"><path
             d="m 0,0 c 0.037,2.664 -0.588,3.514 -2.07,3.662 -2.735,0.276 -5.087,-0.959 -6.415,-3.357 -2.031,-3.667 -4.066,-7.332 -6.099,-10.999 -3.013,-5.43 -6.031,-10.854 -9.031,-16.291 -1.317,-2.387 -0.951,-5.205 0.877,-7.134 1.842,-1.943 4.07,-2.345 6.707,-0.997 1.333,0.682 2.578,1.582 3.751,2.525 3.478,2.793 7.401,3.991 11.81,3.335 2.698,-0.4 4.957,-1.641 6.579,-3.951 1.189,-1.694 2.82,-2.796 4.906,-3.144 1.785,-0.298 3.294,0.361 4.249,1.869 0.85,1.341 0.766,2.672 -0.392,4.199 -0.578,0.762 -1.23,1.502 -1.971,2.098 -1.913,1.535 -3.88,3.001 -5.847,4.465 -2.468,1.835 -4.953,3.644 -6.967,6.005 -1.719,2.015 -2.824,4.269 -2.416,6.983 0.289,1.919 0.751,3.814 1.17,5.713 C -0.732,-3.079 -0.267,-1.146 0,0"
             style="fill:#aed24f;fill-opacity:1;fill-rule:nonzero;stroke:none"
             id="path858" /></g><g
           id="g860"
           transform="translate(43.0195,66.3423)"><path
             d="m 0,0 c 0.038,-0.749 0.128,-1.453 0.096,-2.152 -0.033,-0.706 -0.138,-1.417 -0.298,-2.105 -0.563,-2.408 -1.149,-4.809 -1.752,-7.206 -0.823,-3.273 -0.184,-6.174 2.156,-8.655 0.393,-0.417 0.753,-0.878 1.196,-1.233 2.453,-1.956 4.944,-3.867 7.39,-5.832 1.82,-1.462 3.684,-2.887 5.36,-4.504 1.544,-1.489 2.366,-3.33 1.372,-5.562 0.243,0.205 0.452,0.405 0.613,0.641 1.434,2.1 1.591,4.301 0.42,6.557 C 11.743,-20.782 6.919,-11.52 2.093,-2.26 1.601,-1.318 0.9,-0.557 0,0"
             style="fill:#ffffff;fill-opacity:1;fill-rule:nonzero;stroke:none"
             id="path862" /></g><g
           id="g864"
           transform="translate(76.2002,67.2114)"><path
             d="M 0,0 -8.122,-18.824 H -3.2 l 1.371,3.469 H 6.4 l 1.345,-3.469 h 5.109 L 4.921,0 Z m 2.314,-4.76 2.687,-6.965 h -5.432 z"
             style="fill:#ffffff;fill-opacity:1;fill-rule:nonzero;stroke:none"
             id="path866" /></g><g
           id="g868"
           transform="translate(112.3125,57.9609)"><path
             d="m 0,0 v -7.342 c -2.018,-1.424 -5.189,-2.447 -7.825,-2.447 -5.729,0 -10.059,4.142 -10.059,9.627 0,5.46 4.438,9.575 10.381,9.575 2.797,0 5.755,-1.077 7.691,-2.797 L -2.5,3.362 c -1.373,1.264 -3.282,2.044 -5.03,2.044 -3.092,0 -5.459,-2.421 -5.459,-5.568 0,-3.2 2.394,-5.619 5.512,-5.619 0.97,0 2.206,0.348 3.335,0.913 l 0,4.868 z"
             style="fill:#ffffff;fill-opacity:1;fill-rule:nonzero;stroke:none"
             id="path870" /></g><path
           d="m 122.652,48.388 h 4.787 v 18.824 h -4.787 z"
           style="fill:#ffffff;fill-opacity:1;fill-rule:nonzero;stroke:none"
           id="path872" /><path
           d="m 159.981,48.388 h 4.786 v 18.824 h -4.786 z"
           style="fill:#ffffff;fill-opacity:1;fill-rule:nonzero;stroke:none"
           id="path874" /><g
           id="g876"
           transform="translate(137.937,67.2114)"><path
             d="m 0,0 v -18.824 h 12.773 v 4.007 H 4.787 V 0 Z"
             style="fill:#ffffff;fill-opacity:1;fill-rule:nonzero;stroke:none"
             id="path878" /></g><g
           id="g880"
           transform="translate(174.0781,67.2393)"><path
             d="m 0,0 v -3.873 h 5.622 v -14.979 h 4.787 v 14.979 h 5.674 V 0 Z"
             style="fill:#ffffff;fill-opacity:1;fill-rule:nonzero;stroke:none"
             id="path882" /></g><g
           id="g884"
           transform="translate(211.6396,67.2114)"><path
             d="M 0,0 -4.438,-8.202 -8.982,0 h -4.787 l 6.965,-12.879 v -5.945 h 4.76 l -0.198,5.708 6.83,12.746 z"
             style="fill:#ffffff;fill-opacity:1;fill-rule:nonzero;stroke:none"
             id="path886" /></g><g
           id="g888"
           transform="translate(68.0786,42.167)"><path
             d="m 0,0 v -15.099 h 10.524 v 1.597 H 1.726 v 5.264 h 7.612 v 1.574 H 1.726 v 5.068 h 8.518 V 0 Z"
             style="fill:#aed24f;fill-opacity:1;fill-rule:nonzero;stroke:none"
             id="path890" /></g><g
           id="g892"
           transform="translate(97.2788,42.167)"><path
             d="M 0,0 V -12.273 L -9.059,0 h -1.79 v -15.099 h 1.725 v 12.252 l 9.059,-12.252 H 1.703 L 1.703,0 Z"
             style="fill:#aed24f;fill-opacity:1;fill-rule:nonzero;stroke:none"
             id="path894" /></g><g
           id="g896"
           transform="translate(118.4121,34.4448)"><path
             d="m 0,0 h 1.531 v -5.479 c -1.488,-1.186 -3.58,-1.962 -5.607,-1.962 -4.379,0 -7.873,3.365 -7.873,7.613 0,4.25 3.516,7.592 7.959,7.592 2.093,0 4.119,-0.797 5.564,-2.071 L 0.583,4.442 c -1.229,1.1 -2.891,1.748 -4.573,1.748 -3.451,0 -6.211,-2.674 -6.211,-6.018 0,-3.363 2.782,-6.039 6.233,-6.039 1.358,0 2.803,0.474 3.968,1.273 z"
             style="fill:#aed24f;fill-opacity:1;fill-rule:nonzero;stroke:none"
             id="path898" /></g><path
           d="m 128.438,27.068 h 1.725 v 15.099 h -1.725 z"
           style="fill:#aed24f;fill-opacity:1;fill-rule:nonzero;stroke:none"
           id="path900" /><g
           id="g902"
           transform="translate(149.8965,42.167)"><path
             d="M 0,0 V -12.273 L -9.058,0 h -1.791 v -15.099 h 1.727 v 12.252 l 9.059,-12.252 H 1.703 L 1.703,0 Z"
             style="fill:#aed24f;fill-opacity:1;fill-rule:nonzero;stroke:none"
             id="path904" /></g><g
           id="g906"
           transform="translate(160.5049,42.167)"><path
             d="m 0,0 v -15.099 h 10.525 v 1.597 H 1.726 v 5.264 H 9.34 v 1.574 H 1.726 v 5.068 h 8.52 V 0 Z"
             style="fill:#aed24f;fill-opacity:1;fill-rule:nonzero;stroke:none"
             id="path908" /></g><g
           id="g910"
           transform="translate(178.8574,42.167)"><path
             d="m 0,0 v -15.099 h 10.524 v 1.597 H 1.726 v 5.264 h 7.613 v 1.574 H 1.726 v 5.068 h 8.518 V 0 Z"
             style="fill:#aed24f;fill-opacity:1;fill-rule:nonzero;stroke:none"
             id="path912" /></g><g
           id="g914"
           transform="translate(207.0869,27.0688)"><path
             d="M 0,0 -3.171,4.831 C -3.472,4.81 -3.797,4.788 -4.142,4.788 H -8.153 V 0 h -1.725 v 15.099 h 5.736 c 3.776,0 5.954,-1.856 5.954,-5.07 0,-2.48 -1.23,-4.184 -3.409,-4.874 L 1.962,0 Z m -4.142,6.384 c 2.74,0 4.293,1.229 4.293,3.602 0,2.308 -1.553,3.516 -4.293,3.516 H -8.153 V 6.384 Z"
             style="fill:#aed24f;fill-opacity:1;fill-rule:nonzero;stroke:none"
             id="path916" /></g><path
           d="m 217.113,27.068 h 1.726 v 15.099 h -1.726 z"
           style="fill:#aed24f;fill-opacity:1;fill-rule:nonzero;stroke:none"
           id="path918" /><g
           id="g920"
           transform="translate(238.5713,42.167)"><path
             d="M 0,0 V -12.273 L -9.058,0 h -1.791 v -15.099 h 1.726 v 12.252 l 9.058,-12.252 H 1.703 L 1.703,0 Z"
             style="fill:#aed24f;fill-opacity:1;fill-rule:nonzero;stroke:none"
             id="path922" /></g><g
           id="g924"
           transform="translate(259.7051,34.4448)"><path
             d="m 0,0 h 1.531 v -5.479 c -1.488,-1.186 -3.581,-1.962 -5.607,-1.962 -4.379,0 -7.873,3.365 -7.873,7.613 0,4.25 3.516,7.592 7.959,7.592 2.092,0 4.119,-0.797 5.564,-2.071 L 0.582,4.442 c -1.229,1.1 -2.89,1.748 -4.572,1.748 -3.451,0 -6.212,-2.674 -6.212,-6.018 0,-3.363 2.782,-6.039 6.234,-6.039 1.358,0 2.803,0.474 3.968,1.273 z"
             style="fill:#aed24f;fill-opacity:1;fill-rule:nonzero;stroke:none"
             id="path926" /></g></g></g></g></svg>
